    <svg width="822" height="597" viewBox="0 0 822 597" fill="none" xmlns="http://www.w3.org/2000/svg">
<rect width="822" height="597" rx="5" fill="#130F26"/>
<path d="M74.71 34L90.9743 42.0165V49.3441L81.2157 44.3964V48.0915L86.0589 50.534L86.1311 56.8595L81.2157 54.417V63.6861L74.71 66.9428V34ZM73.2643 34V66.9428L66.7586 63.6861V44.3964L57 49.3441V42.0165L73.2643 34Z" fill="#39424E" fill-opacity="0.37"/>
<path d="M99.446 514.17C99.0166 514.17 98.7137 514.221 98.4106 514.298C98.4106 514.298 98.4106 514.323 98.4106 514.349H98.4612C98.6633 514.758 99.0166 515.039 99.2692 515.396C99.4713 515.805 99.648 516.214 99.8501 516.622C99.8753 516.597 99.9005 516.571 99.9005 516.571C100.254 516.316 100.431 515.907 100.431 515.294C100.279 515.115 100.254 514.936 100.128 514.758C99.9764 514.502 99.648 514.374 99.446 514.17Z" fill="#39424E" fill-opacity="0.37"/>
<path d="M125.202 536.515C123.181 536.464 121.616 536.669 120.302 537.231C119.924 537.384 119.317 537.384 119.267 537.869C119.469 538.074 119.494 538.406 119.671 538.687C119.974 539.197 120.504 539.887 120.984 540.245C121.515 540.654 122.045 541.062 122.6 541.42C123.585 542.033 124.697 542.391 125.656 543.004C126.212 543.361 126.767 543.821 127.323 544.204C127.601 544.409 127.777 544.741 128.131 544.869V544.792C127.954 544.562 127.904 544.23 127.727 543.974C127.475 543.719 127.222 543.489 126.969 543.234C126.237 542.237 125.328 541.369 124.343 540.654C123.535 540.092 121.767 539.325 121.439 538.38C121.439 538.38 121.413 538.355 121.388 538.329C121.944 538.278 122.6 538.074 123.131 537.92C123.99 537.69 124.772 537.741 125.656 537.512C126.06 537.409 126.464 537.282 126.868 537.154V536.924C126.414 536.464 126.086 535.851 125.606 535.417C124.318 534.293 122.903 533.195 121.439 532.275C120.656 531.764 119.646 531.432 118.812 530.998C118.509 530.844 118.004 530.768 117.828 530.512C117.373 529.95 117.12 529.21 116.792 528.545C116.06 527.14 115.353 525.582 114.721 524.101C114.267 523.104 113.989 522.108 113.433 521.189C110.832 516.846 108.004 514.215 103.66 511.635C102.726 511.098 101.615 510.868 100.428 510.587C99.7963 510.562 99.1648 510.511 98.5335 510.485C98.1295 510.306 97.7253 509.821 97.3717 509.591C95.9325 508.671 92.22 506.679 91.1593 509.31C90.4774 510.971 92.1695 512.605 92.7503 513.448C93.1798 514.036 93.7352 514.7 94.0383 515.364C94.2151 515.798 94.2655 516.258 94.4423 516.718C94.8465 517.842 95.2251 519.094 95.7556 520.141C96.0334 520.678 96.3364 521.24 96.69 521.725C96.892 522.006 97.2454 522.134 97.3213 522.593C96.9679 523.104 96.9425 523.871 96.7404 524.509C95.8313 527.396 96.1849 530.972 97.4728 533.092C97.8768 533.731 98.8366 535.136 100.124 534.6C101.261 534.14 101.008 532.684 101.337 531.406C101.412 531.1 101.362 530.896 101.513 530.691C101.514 530.717 101.513 530.742 101.513 530.742C101.867 531.458 102.22 532.147 102.549 532.862C103.332 534.114 104.695 535.417 105.832 536.286C106.438 536.745 106.918 537.537 107.675 537.818V537.741H107.625C107.473 537.511 107.246 537.409 107.044 537.231C106.59 536.771 106.084 536.209 105.731 535.698C104.67 534.267 103.736 532.684 102.902 531.049C102.498 530.257 102.145 529.388 101.816 528.596C101.665 528.29 101.665 527.83 101.412 527.677C101.034 528.239 100.478 528.724 100.2 529.414C99.7206 530.512 99.6699 531.866 99.4931 533.271C99.3922 533.297 99.4426 533.271 99.392 533.322C98.584 533.118 98.3061 532.275 98.0031 531.56C97.2454 529.746 97.1192 526.834 97.7759 524.739C97.9527 524.203 98.7103 522.517 98.4072 522.006C98.2558 521.521 97.7505 521.24 97.4728 520.856C97.1445 520.371 96.7909 519.758 96.5637 519.222C95.9575 517.791 95.6545 516.207 94.9979 514.777C94.6949 514.112 94.1646 513.423 93.7352 512.81C93.2555 512.12 92.7251 511.635 92.3463 510.817C92.2202 510.536 92.0432 510.077 92.2452 509.77C92.2957 509.566 92.3967 509.489 92.5988 509.438C92.9271 509.157 93.8615 509.515 94.1898 509.668C95.1242 510.051 95.907 510.409 96.69 510.945C97.0434 511.2 97.4222 511.686 97.8768 511.814H98.4072C99.2154 511.992 100.124 511.865 100.882 512.095C102.221 512.529 103.433 513.167 104.519 513.857C107.827 515.977 110.554 518.992 112.398 522.593C112.701 523.181 112.827 523.718 113.105 524.33C113.635 525.582 114.292 526.859 114.822 528.086C115.353 529.286 115.858 530.512 116.615 531.509C116.994 532.045 118.509 532.326 119.191 532.607C119.696 532.837 120.479 533.041 120.934 533.322C121.792 533.858 122.651 534.472 123.459 535.059C123.863 535.366 125.126 536.004 125.202 536.515L125.202 536.515Z" fill="#39424E" fill-opacity="0.37"/>
<path d="M323 113L338.925 137.977L354.851 113H348.481L338.925 127.986L329.291 113H323Z" fill="#39424E" fill-opacity="0.37"/>
<path d="M330.432 113L338.961 126L347.419 113H342.203L338.961 118L335.648 113H330.432Z" fill="#39424E" fill-opacity="0.37"/>
<path d="M574.292 95.6633L559.922 82.5658C559.095 81.8114 557.752 81.8114 556.924 82.5658L553.94 85.2857L557.726 88.736C558.605 88.4651 559.614 88.6468 560.315 89.2861C561.02 89.9293 561.218 90.8565 560.913 91.661L564.561 94.9862C565.444 94.7091 566.462 94.8884 567.167 95.532C568.152 96.4296 568.152 97.8845 567.167 98.7828C566.182 99.6811 564.586 99.6811 563.6 98.7828C562.859 98.1067 562.676 97.1146 563.051 96.2825L559.649 93.1814L559.648 101.342C559.888 101.451 560.115 101.595 560.315 101.777C561.3 102.675 561.3 104.129 560.315 105.028C559.33 105.926 557.733 105.926 556.749 105.028C555.764 104.129 555.764 102.675 556.749 101.777C556.992 101.555 557.274 101.388 557.574 101.275V93.0385C557.274 92.9266 556.993 92.7601 556.749 92.5369C556.002 91.8575 555.823 90.8591 556.205 90.0237L552.474 86.6221L542.621 95.6027C541.793 96.3578 541.793 97.5813 542.621 98.3358L556.991 111.434C557.819 112.188 559.16 112.188 559.989 111.434L574.292 98.3967C575.12 97.6419 575.12 96.4177 574.292 95.6633Z" fill="#39424E" fill-opacity="0.37"/>
<path d="M178.794 199.906L166.696 196.942L164 170.253H193.624L190.925 196.938L178.794 199.906Z" fill="#39424E" fill-opacity="0.37"/>
<path d="M188.615 195.239L190.921 172.435H178.812V197.638L188.615 195.239Z" fill="#39424E" fill-opacity="0.37"/>
<path d="M170.18 182.334L170.513 185.607H178.812V182.334H170.18Z" fill="#130F26"/>
<path d="M169.513 175.709L169.85 178.982H178.812V175.709H169.513Z" fill="#130F26"/>
<path d="M178.812 190.835L178.796 190.839L174.665 189.855L174.401 187.244H170.679L171.198 192.384L178.795 194.245L178.812 194.241V190.835Z" fill="#130F26"/>
<path d="M170.972 163H175.464V164.658H172.85V166.316H175.464V167.974H170.972V163Z" fill="#39424E" fill-opacity="0.37"/>
<path d="M176.362 163H180.854V164.442H178.24V164.73H180.854V168.046H176.362V166.532H178.975V166.244H176.362V163Z" fill="#39424E" fill-opacity="0.37"/>
<path d="M181.752 163H186.244V164.442H183.63V164.73H186.244V168.046H181.752V166.532H184.366V166.244H181.752V163Z" fill="#39424E" fill-opacity="0.37"/>
<path d="M187.42 182.334L188.089 175.709H178.799V178.982H184.025L183.688 182.334H178.799V185.607H183.366L182.936 189.852L178.799 190.838V194.243L186.402 192.384L186.458 191.83L187.329 183.213L187.42 182.334Z" fill="#130F26"/>
</svg>